<svg width="113" height="120" viewBox="0 0 113 120" fill="none" xmlns="http://www.w3.org/2000/svg">
<path fill-rule="evenodd" clip-rule="evenodd" d="M9.41667 21C9.41667 20.4477 9.86439 20 10.4167 20H97.875C98.4273 20 98.875 20.4477 98.875 21V39C98.875 39.5523 98.4273 40 97.875 40H10.4167C9.86439 40 9.41667 39.5523 9.41667 39V21ZM42.375 51C42.375 50.4477 42.8227 50 43.375 50H97.875C98.4273 50 98.875 50.4477 98.875 51V69C98.875 69.5523 98.4273 70 97.875 70H43.375C42.8227 70 42.375 69.5523 42.375 69V51ZM43.375 80C42.8227 80 42.375 80.4477 42.375 81V99C42.375 99.5523 42.8227 100 43.375 100H97.875C98.4273 100 98.875 99.5523 98.875 99V81C98.875 80.4477 98.4273 80 97.875 80H43.375Z" fill="#315085"/>
<rect opacity="0.3" x="9.41667" y="50" width="23.5417" height="50" rx="1" fill="#315085"/>
</svg>
