<svg width="129" height="122" viewBox="0 0 129 122" fill="none" xmlns="http://www.w3.org/2000/svg">
<path opacity="0.3" fill-rule="evenodd" clip-rule="evenodd" d="M118.25 67.9804C118.25 66.9327 117.401 66.0833 116.353 66.0833H41.8333C30.6035 66.0833 21.5 75.1869 21.5 86.4167C21.5 97.6465 30.6035 106.75 41.8333 106.75H116.353C117.401 106.75 118.25 105.901 118.25 104.853V67.9804ZM48.375 86.4167C48.375 92.0316 43.5621 96.5833 37.625 96.5833C31.6879 96.5833 26.875 92.0316 26.875 86.4167C26.875 80.8018 31.6879 76.25 37.625 76.25C43.5621 76.25 48.375 80.8018 48.375 86.4167Z" fill="#FFFAFA"/>
<path opacity="0.3" fill-rule="evenodd" clip-rule="evenodd" d="M77.2791 23.055C76.5382 22.3543 75.3371 22.3543 74.5962 23.055L22.7279 72.1088C14.3316 80.0494 14.3316 92.9238 22.7279 100.864C31.1241 108.805 44.7372 108.805 53.1335 100.864L105.002 51.8107C105.743 51.11 105.743 49.974 105.002 49.2734L77.2791 23.055ZM48.375 86.4167C48.375 92.0316 43.5621 96.5833 37.625 96.5833C31.6879 96.5833 26.875 92.0316 26.875 86.4167C26.875 80.8018 31.6879 76.25 37.625 76.25C43.5621 76.25 48.375 80.8018 48.375 86.4167Z" fill="#2C4518"/>
<path fill-rule="evenodd" clip-rule="evenodd" d="M17.9191 15.25C16.9283 15.25 16.125 16.0533 16.125 17.0441V85.25C16.125 97.1241 25.7509 106.75 37.625 106.75C49.4991 106.75 59.125 97.1241 59.125 85.25V17.0441C59.125 16.0533 58.3217 15.25 57.3309 15.25H17.9191ZM48.375 86.4167C48.375 92.0316 43.5621 96.5833 37.625 96.5833C31.6879 96.5833 26.875 92.0316 26.875 86.4167C26.875 80.8018 31.6879 76.25 37.625 76.25C43.5621 76.25 48.375 80.8018 48.375 86.4167Z" fill="#315085"/>
</svg>
