<svg width="104" height="153" viewBox="0 0 104 153" fill="none" xmlns="http://www.w3.org/2000/svg">
<path fill-rule="evenodd" clip-rule="evenodd" d="M7.12912 34L17.2083 24.6111V14.1667H28.4208L37.2401 5.95143L46.0594 14.1667H59.7917V26.9584L67.351 34L59.7917 41.0416V53.8333H46.0594L37.2401 62.0486L28.4208 53.8333H17.2083V43.3889L7.12912 34ZM47.625 34C47.625 38.6944 43.5396 42.5 38.5 42.5C33.4604 42.5 29.375 38.6944 29.375 34C29.375 29.3056 33.4604 25.5 38.5 25.5C43.5396 25.5 47.625 29.3056 47.625 34Z" fill="#6485BA"/>
<path fill-rule="evenodd" clip-rule="evenodd" d="M5.12912 118.5L15.2083 108.973V98.375H26.4208L35.2401 90.039L44.0594 98.375H57.7917V111.355L65.351 118.5L57.7917 125.645V138.625H44.0594L35.2401 146.961L26.4208 138.625H15.2083V128.027L5.12912 118.5ZM45.625 118.5C45.625 123.263 41.5396 127.125 36.5 127.125C31.4604 127.125 27.375 123.263 27.375 118.5C27.375 113.737 31.4604 109.875 36.5 109.875C41.5396 109.875 45.625 113.737 45.625 118.5Z" fill="white"/>
<path fill-rule="evenodd" clip-rule="evenodd" d="M36.1291 75.5L46.2083 65.9731V55.375H57.4208L66.2401 47.039L75.0594 55.375H88.7917V68.3548L96.351 75.5L88.7917 82.6452V95.625H75.0594L66.2401 103.961L57.4208 95.625H46.2083V85.0269L36.1291 75.5ZM76.625 75.5C76.625 80.2635 72.5396 84.125 67.5 84.125C62.4604 84.125 58.375 80.2635 58.375 75.5C58.375 70.7365 62.4604 66.875 67.5 66.875C72.5396 66.875 76.625 70.7365 76.625 75.5Z" fill="#032560"/>
</svg>
