<svg width="40" height="40" viewBox="0 0 40 40" fill="none" xmlns="http://www.w3.org/2000/svg">
<path d="M4.76137 31.4297L5.20858 31.6533L5.3469 31.3766L5.16113 31.1294L4.76137 31.4297ZM8.57035 35.2387L8.87066 34.8389L8.62338 34.6531L8.34674 34.7915L8.57035 35.2387ZM0.952393 39.0476L0.505179 38.824C0.408932 39.0165 0.446659 39.249 0.598839 39.4012C0.751019 39.5534 0.983505 39.5911 1.176 39.4949L0.952393 39.0476ZM12.381 12.381L12.081 11.981C11.9551 12.0754 11.881 12.2236 11.881 12.381H12.381ZM27.6191 27.6191V28.1191C27.7665 28.1191 27.9065 28.054 28.0015 27.9411L27.6191 27.6191ZM13.5647 11.4932L13.2647 11.0932L13.5647 11.4932ZM16.5976 12.7807L16.1015 12.8428L16.5976 12.7807ZM17.0273 16.2185L17.5235 16.1565V16.1565L17.0273 16.2185ZM16.4841 17.8016L16.1306 17.4481L16.4841 17.8016ZM28.4634 26.6164L28.081 26.2943L28.4634 26.6164ZM27.2823 23.5048L27.3547 23.01L27.2823 23.5048ZM23.8035 22.9957L23.8759 22.5009L23.8035 22.9957ZM22.1808 23.5335L22.5344 23.887L22.1808 23.5335ZM0.452416 20C0.452416 24.4005 1.9071 28.4627 4.36161 31.73L5.16113 31.1294C2.83225 28.0293 1.45242 24.1765 1.45242 20H0.452416ZM20 0.452393C9.20418 0.452393 0.452416 9.20416 0.452416 20H1.45242C1.45242 9.75644 9.75647 1.45239 20 1.45239V0.452393ZM39.5477 20C39.5477 9.20416 30.7959 0.452393 20 0.452393V1.45239C30.2436 1.45239 38.5477 9.75644 38.5477 20H39.5477ZM20 39.5476C30.7959 39.5476 39.5477 30.7959 39.5477 20H38.5477C38.5477 30.2436 30.2436 38.5476 20 38.5476V39.5476ZM8.27003 35.6384C11.5373 38.0929 15.5995 39.5476 20 39.5476V38.5476C15.8235 38.5476 11.9707 37.1678 8.87066 34.8389L8.27003 35.6384ZM1.176 39.4949L8.79395 35.6859L8.34674 34.7915L0.728786 38.6004L1.176 39.4949ZM4.31416 31.2061L0.505179 38.824L1.39961 39.2712L5.20858 31.6533L4.31416 31.2061ZM11.881 12.381V14.2857H12.881V12.381H11.881ZM25.7143 28.1191H27.6191V27.1191H25.7143V28.1191ZM11.881 14.2857C11.881 21.9257 18.0744 28.1191 25.7143 28.1191V27.1191C18.6266 27.1191 12.881 21.3734 12.881 14.2857H11.881ZM12.681 12.781L13.8647 11.8932L13.2647 11.0932L12.081 11.981L12.681 12.781ZM16.1015 12.8428L16.5312 16.2805L17.5235 16.1565L17.0937 12.7187L16.1015 12.8428ZM16.1306 17.4481L13.9322 19.6465L14.6393 20.3536L16.8377 18.1552L16.1306 17.4481ZM16.5312 16.2805C16.5849 16.7107 16.4371 17.1415 16.1306 17.4481L16.8377 18.1552C17.3624 17.6304 17.6155 16.8928 17.5235 16.1565L16.5312 16.2805ZM13.8647 11.8932C14.7276 11.246 15.9677 11.7725 16.1015 12.8428L17.0937 12.7187C16.8647 10.8866 14.7418 9.98533 13.2647 11.0932L13.8647 11.8932ZM28.0015 27.9411L28.8459 26.9384L28.081 26.2943L27.2366 27.297L28.0015 27.9411ZM27.3547 23.01L23.8759 22.5009L23.7311 23.4904L27.2099 23.9995L27.3547 23.01ZM21.8273 23.1799L19.6465 25.3608L20.3536 26.0679L22.5344 23.887L21.8273 23.1799ZM23.8759 22.5009C23.1241 22.3909 22.3646 22.6427 21.8273 23.1799L22.5344 23.887C22.8482 23.5732 23.292 23.4261 23.7311 23.4904L23.8759 22.5009ZM28.8459 26.9384C30.0597 25.497 29.2193 23.2829 27.3547 23.01L27.2099 23.9995C28.2991 24.1589 28.7901 25.4523 28.081 26.2943L28.8459 26.9384Z" fill="white"/>
</svg>
